<svg width="84" height="84" viewBox="0 0 84 84" fill="none" xmlns="http://www.w3.org/2000/svg">
<path d="M68.4668 50.3746C70.2394 50.9538 71.2232 52.8702 70.4585 54.5711C68.0209 59.993 64.0941 64.6415 59.1044 67.9558C53.1733 71.8955 46.087 73.72 38.9908 73.1344C31.8946 72.5489 25.2032 69.5875 19.9981 64.7289C15.6192 60.6415 12.5075 55.4122 10.9916 49.664C10.516 47.8609 11.8007 46.1317 13.6442 45.8508V45.8508C15.4878 45.57 17.1877 46.8472 17.7152 48.6359C18.9681 52.8841 21.3387 56.7423 24.6061 59.7922C28.7006 63.6141 33.9642 65.9436 39.5462 66.4042C45.1282 66.8648 50.7024 65.4296 55.3679 62.3306C59.0912 59.8575 62.062 56.4401 63.9944 52.4547C64.8079 50.7767 66.6942 49.7954 68.4668 50.3746V50.3746Z" fill="#FFA782"/>
<circle cx="29.7498" cy="33.1353" r="3.85953" transform="rotate(19.7116 29.7498 33.1353)" fill="#9E22FF"/>
<path d="M56.4431 36.3071C57.2734 36.3735 57.9169 37.1271 57.5392 37.8694C57.3672 38.2076 57.1451 38.521 56.878 38.7981C56.2583 39.441 55.4348 39.8491 54.548 39.9529C53.6611 40.0568 52.7657 39.8499 52.0142 39.3675C51.2628 38.8852 50.7019 38.1572 50.427 37.3076C50.1522 36.458 50.1804 35.5394 50.5069 34.7083C50.8334 33.8773 51.438 33.1851 52.2176 32.7498C52.9972 32.3145 53.9037 32.1629 54.7825 32.321C55.1613 32.3892 55.5249 32.513 55.8624 32.6864C56.6033 33.0669 56.5232 34.0546 55.8892 34.5947L55.1824 35.1968C54.9387 35.4044 54.5635 35.3462 54.2485 35.2896V35.2896C54.0565 35.255 53.8584 35.2881 53.688 35.3832C53.5177 35.4784 53.3856 35.6296 53.3142 35.8112C53.2429 35.9928 53.2367 36.1935 53.2968 36.3792C53.3568 36.5648 53.4794 36.7239 53.6436 36.8293C53.8078 36.9347 54.0035 36.9799 54.1972 36.9572C54.391 36.9345 54.571 36.8454 54.7064 36.7049V36.7049C54.9285 36.4744 55.1985 36.2075 55.5176 36.233L56.4431 36.3071Z" fill="#9E22FF"/>
</svg>
